<?xml version="1.0" standalone="no"?>
<!DOCTYPE svg PUBLIC "-//W3C//DTD SVG 20010904//EN"
 "http://www.w3.org/TR/2001/REC-SVG-20010904/DTD/svg10.dtd">
<svg version="1.0" xmlns="http://www.w3.org/2000/svg"
 width="285.000000pt" height="285.000000pt" viewBox="0 0 285.000000 285.000000"
 preserveAspectRatio="xMidYMid meet">
<metadata>
Created by potrace 1.11, written by Peter Selinger 2001-2013
</metadata>
<g transform="translate(0.000000,285.000000) scale(0.100000,-0.100000)"
fill="#000000" stroke="none">
<path d="M1385 2298 c-15 -4 -46 -9 -69 -11 -81 -9 -218 -68 -320 -137 -222
-149 -358 -417 -350 -685 1 -49 5 -100 8 -112 3 -13 8 -31 10 -41 10 -44 28
-106 36 -121 4 -9 20 -41 35 -71 102 -203 305 -366 530 -424 92 -23 123 -27
215 -28 242 0 451 84 617 249 65 64 150 184 172 244 7 19 17 43 22 54 24 56
42 161 44 255 7 311 -175 605 -459 743 -68 33 -163 68 -195 72 -9 1 -32 5 -51
9 -48 10 -212 13 -245 4z"/>
<path d="M622 2014 c-65 -15 -161 -52 -183 -71 -9 -7 -19 -10 -22 -6 -4 3 -7
2 -7 -4 0 -5 -10 -14 -23 -20 -73 -33 -205 -190 -251 -298 -81 -188 -71 -410
26 -585 123 -222 356 -359 613 -362 75 -1 205 16 205 26 0 2 -26 21 -57 44
-76 53 -164 141 -218 216 -50 71 -115 193 -115 218 0 9 -4 19 -9 22 -5 3 -12
23 -16 43 -5 21 -10 45 -11 53 -31 139 -25 328 14 455 18 58 72 178 100 219
42 62 42 62 24 62 -9 1 -41 -5 -70 -12z"/>
<path d="M2424 1702 c14 -24 20 -90 20 -227 -1 -133 -4 -160 -28 -240 -26 -87
-112 -265 -127 -265 -4 0 -10 -8 -13 -18 -9 -28 -126 -146 -199 -201 -65 -49
-67 -51 -44 -60 60 -23 165 -30 255 -16 242 36 436 229 467 465 9 67 9 62 2
135 -15 144 -105 294 -224 377 -47 31 -118 65 -109 50z"/>
</g>
</svg>
